<?xml version="1.0" encoding="utf-8"?>
<!-- Generator: Adobe Illustrator 18.1.1, SVG Export Plug-In . SVG Version: 6.00 Build 0)  -->
<!DOCTYPE svg PUBLIC "-//W3C//DTD SVG 1.1//EN" "http://www.w3.org/Graphics/SVG/1.1/DTD/svg11.dtd">
<svg version="1.1" id="_x31_0" xmlns="http://www.w3.org/2000/svg" xmlns:xlink="http://www.w3.org/1999/xlink" x="0px" y="0px"
	 viewBox="0 0 512 512" style="enable-background:new 0 0 512 512;" xml:space="preserve">
<style type="text/css">
	.st0{fill:#FFFFFF;}
</style>
<g>
	<path class="st0" d="M243.43,129.108v0.16h35.222h154.442h39.801l-25.34-77.934c-2.722-8.402-11.695-12.985-20.094-10.262
		L243.43,100.874v28.062V129.108L243.43,129.108z"/>
	<path class="st0" d="M473.82,152.381h-29.781h-39.852H221.114v-6.297v-41.476c0-28.051-22.801-50.875-50.829-50.875H50.875
		C22.824,53.733,0,76.557,0,104.608v310.027c0,31.473,25.606,57.078,57.082,57.078h397.839c31.473,0,57.078-25.605,57.078-57.078
		V190.561v-38.18H473.82z M404.187,190.561h39.852h29.781v224.074c0,10.453-8.496,18.898-18.898,18.898H57.082
		c-10.406,0-18.902-8.446-18.902-18.898V104.608c0-7.016,5.679-12.696,12.695-12.696h119.41c6.969,0,12.649,5.68,12.649,12.696
		v41.476v39.801v4.489l-0.004,0.031h0.004v0.156H404.187z"/>
</g>
</svg>
